# xmcd
# Track frame offsets:
# 183
# 18710
# 29140
# 41458
# 56320
# 71098
# 95120
# 112583
# 131580
# 143840
# 169333
# 184545
# 199168
# 232640
# 249633
#
# Disc length: 3563 seconds
# Revision: 3
# Processed by: cddbd v1.5.2PL0 Copyright (c) Steve Scherf et al.
# Submitted via: VisiTrax 2.10.1.251 - For more info visit www.synapsa.com
#
DISCID=ce0de90f
DTITLE=Various Artist - Done Still Got the Blues
DYEAR=1994
DGENRE=Blues
TTITLE0=Byther Smith - Come On in This House
TTITLE1=Paul DeLay Band, The - Harpoon Man
TTITLE2=Buddy Guy - You Sure Can't Do
TTITLE3=Tommy Tucker - Drunk
TTITLE4=Billy Arnold with Tony McPhee - Don't Stay Out All Night
TTITLE5=Jimmy Johnson - When My First Wife Quit Me
TTITLE6=Colin "Barrelhouse" Banagan - Drivin' the Boogie
TTITLE7=Carey Bell and Willie Williams - You Went Away Baby
TTITLE8=Muddy Waters - Trouble No More
TTITLE9=Mighty Houserockers featuring Les Wilson - Play the Blues for You
TTITLE10=King Curtis - Soul Groove (part 2)
TTITLE11=King Biscuit Boy with The Ronnie Hawkins band - Done Everything I Can
TTITLE12=U P Wilson - Hold On Baby
TTITLE13=John Lee Hooker - Goin' Mad Blues
TTITLE14=Earl Hooker - Bertha
EXTD=
EXTT0=
EXTT1=
EXTT2=
EXTT3=
EXTT4=
EXTT5=
EXTT6=
EXTT7=
EXTT8=
EXTT9=
EXTT10=
EXTT11=
EXTT12=
EXTT13=
EXTT14=
PLAYORDER=
